<?xml version="1.0" encoding="UTF-8" standalone="no"?>
<svg
   xmlns:dc="http://purl.org/dc/elements/1.1/"
   xmlns:cc="http://creativecommons.org/ns#"
   xmlns:rdf="http://www.w3.org/1999/02/22-rdf-syntax-ns#"
   xmlns:svg="http://www.w3.org/2000/svg"
   xmlns="http://www.w3.org/2000/svg"
   version="1.1"
   id="svg3373"
   viewBox="0 0 10.78456 17.4347"
   height="4.9204597mm"
   width="3.0436425mm">
  <defs
     id="defs3375" />
  <metadata
     id="metadata3378">
    <rdf:RDF>
      <cc:Work
         rdf:about="">
        <dc:format>image/svg+xml</dc:format>
        <dc:type
           rdf:resource="http://purl.org/dc/dcmitype/StillImage" />
        <dc:title></dc:title>
        <cc:license
           rdf:resource="http://creativecommons.org/publicdomain/mark/1.0/" />
      </cc:Work>
      <cc:License
         rdf:about="http://creativecommons.org/publicdomain/mark/1.0/">
        <cc:permits
           rdf:resource="http://creativecommons.org/ns#Reproduction" />
        <cc:permits
           rdf:resource="http://creativecommons.org/ns#Distribution" />
        <cc:permits
           rdf:resource="http://creativecommons.org/ns#DerivativeWorks" />
      </cc:License>
    </rdf:RDF>
  </metadata>
  <g
     transform="translate(0,-1034.9276)"
     id="layer1">
    <path
       id="path18"
       d="m 8.94147,1042.9724 c -1.22043,0 -1.868,-1.046 -1.868,-1.868 0,-0.9464 0.67248,-1.9178 1.79328,-1.9178 0.0996,0 0.22416,0 0.34869,0.025 -0.69738,-0.9215 -1.79328,-1.4695 -2.98879,-1.4695 l -0.32379,0 0,11.8058 c 0.0996,0 0.22416,0.025 0.32379,0.025 1.99253,0 3.46202,-1.7435 3.93524,-3.7609 0.0498,-0.1744 0.17435,-0.2491 0.29888,-0.2491 0.14944,0 0.32379,0.1 0.32379,0.2989 0,2.3412 -2.6152,4.3337 -4.55791,4.3337 -0.0996,0 -0.22416,-0.025 -0.32379,-0.025 l 0,1.9428 c 0,0.1494 -0.0996,0.249 -0.24906,0.249 l -0.42342,0 c -0.14944,0 -0.24906,-0.1 -0.24906,-0.249 l 0,-2.0175 c -1.27024,-0.1993 -2.46576,-0.7224 -3.33749,-1.6439 C 0.42341,1047.1816 0,1045.4133 0,1043.6449 c 0,-1.7684 0.42341,-3.5367 1.64383,-4.807 0.87173,-0.9215 2.06725,-1.4445 3.33749,-1.6438 l 0,-2.0174 c 0,-0.1495 0.0996,-0.2491 0.24906,-0.2491 l 0.42342,0 c 0.14944,0 0.24906,0.1 0.24906,0.2491 l 0,1.9427 0.32379,0 c 2.16687,0 3.98505,1.594 4.35865,3.736 0.0249,0.1245 0.0249,0.2241 0.0249,0.3238 0,0.9962 -0.7472,1.7932 -1.66874,1.7932 z m -3.96015,6.401 0,-11.457 c -1.44458,0.5479 -1.56912,2.1669 -1.56912,4.4583 l 0,1.2702 0,1.2702 c 0,2.2915 0.12454,3.9104 1.56912,4.4583 z"
       style="fill:currentColor" />
  </g>
</svg>
