<?xml version="1.0" encoding="UTF-8" standalone="no"?>
<svg
   xmlns:dc="http://purl.org/dc/elements/1.1/"
   xmlns:cc="http://creativecommons.org/ns#"
   xmlns:rdf="http://www.w3.org/1999/02/22-rdf-syntax-ns#"
   xmlns:svg="http://www.w3.org/2000/svg"
   xmlns="http://www.w3.org/2000/svg"
   version="1.1"
   id="svg3373"
   viewBox="0 0 10.7846 13.0761"
   height="3.690366mm"
   width="3.0436537mm">
  <defs
     id="defs3375" />
  <metadata
     id="metadata3378">
    <rdf:RDF>
      <cc:Work
         rdf:about="">
        <dc:format>image/svg+xml</dc:format>
        <dc:type
           rdf:resource="http://purl.org/dc/dcmitype/StillImage" />
        <dc:title></dc:title>
        <cc:license
           rdf:resource="http://creativecommons.org/publicdomain/mark/1.0/" />
      </cc:Work>
      <cc:License
         rdf:about="http://creativecommons.org/publicdomain/mark/1.0/">
        <cc:permits
           rdf:resource="http://creativecommons.org/ns#Reproduction" />
        <cc:permits
           rdf:resource="http://creativecommons.org/ns#Distribution" />
        <cc:permits
           rdf:resource="http://creativecommons.org/ns#DerivativeWorks" />
      </cc:License>
    </rdf:RDF>
  </metadata>
  <g
     transform="translate(0,-1039.2862)"
     id="layer1">
    <path
       id="path22"
       d="m 8.9415,1045.1393 c -1.2204,0 -1.868,-1.0461 -1.868,-1.868 0,-0.9464 0.6725,-1.9178 1.7933,-1.9178 0.1,0 0.2241,0 0.3486,0.025 -0.6973,-0.9216 -1.7932,-1.4695 -2.9887,-1.4695 -2.6401,0 -2.8145,1.8182 -2.8145,4.6326 l 0,1.2703 0,1.2702 c 0,2.8145 0.1744,4.6575 2.8145,4.6575 1.9925,0 3.462,-1.7434 3.9352,-3.7609 0.05,-0.1743 0.1743,-0.249 0.2989,-0.249 0.1494,0 0.3238,0.1 0.3238,0.2989 0,2.3412 -2.6152,4.3337 -4.5579,4.3337 -1.6937,0 -3.4122,-0.523 -4.5829,-1.7435 C 0.4234,1049.3485 0,1047.5801 0,1045.8118 c 0,-1.7684 0.4234,-3.5368 1.6438,-4.807 1.1707,-1.2204 2.8892,-1.7186 4.5829,-1.7186 2.1668,0 3.985,1.5941 4.3586,3.736 0.025,0.1246 0.025,0.2242 0.025,0.3238 0,0.9963 -0.7472,1.7933 -1.6687,1.7933 z"
       style="fill:currentColor" />
  </g>
</svg>
