<?xml version="1.0" encoding="utf-8"?>
<!-- Generator: Adobe Illustrator 22.1.0, SVG Export Plug-In . SVG Version: 6.00 Build 0)  -->
<svg version="1.1" id="Layer_1" xmlns="http://www.w3.org/2000/svg" xmlns:xlink="http://www.w3.org/1999/xlink" x="0px" y="0px"
	 viewBox="0 0 512 512" style="enable-background:new 0 0 512 512;" xml:space="preserve">
<g>
	<path d="M171.6,284.1h-14.1c-31.1,0-56.2,25.2-56.2,56.4v56c0,31.1,25.2,56.4,56.2,56.4h14.1c15.5,0,28.1-12.6,28.1-28.2V312.3
		C199.8,296.7,187.2,284.1,171.6,284.1z M354.4,284.1h-14.1c-15.5,0-28.1,12.6-28.1,28.2v112.4c0,15.6,12.6,28.2,28.1,28.2h14.1
		c31.1,0,56.2-25.2,56.2-56.4v-56C410.7,309.4,385.5,284.1,354.4,284.1z M256,59.1c-125.8,0-221,104.7-225,225v98.4
		c0,7.8,6.3,14.1,14.1,14.1h14.1c7.8,0,14.1-6.3,14.1-14.1v-98.4c0-100.8,82-182.6,182.8-182.7c100.8,0,182.8,81.9,182.8,182.7v98.4
		c0,7.8,6.3,14.1,14.1,14.1h14.1c7.8,0,14.1-6.3,14.1-14.1v-98.4C477,163.8,381.8,59.1,256,59.1z"/>
</g>
</svg>
