<?xml version="1.0" encoding="UTF-8" standalone="no"?>
<svg
   xmlns:dc="http://purl.org/dc/elements/1.1/"
   xmlns:cc="http://creativecommons.org/ns#"
   xmlns:rdf="http://www.w3.org/1999/02/22-rdf-syntax-ns#"
   xmlns:svg="http://www.w3.org/2000/svg"
   xmlns="http://www.w3.org/2000/svg"
   xmlns:xlink="http://www.w3.org/1999/xlink"
   xmlns:sodipodi="http://sodipodi.sourceforge.net/DTD/sodipodi-0.dtd"
   xmlns:inkscape="http://www.inkscape.org/namespaces/inkscape"
   version="1.2"
   width="29"
   height="20"
   viewBox="0 0 4.6574009 3.2120006"
   id="svg2"
   inkscape:version="0.48.4 r9939"
   sodipodi:docname="point d'orgue.svg">
  <metadata
     id="metadata22">
    <rdf:RDF>
      <cc:Work
         rdf:about="">
        <dc:format>image/svg+xml</dc:format>
        <dc:type
           rdf:resource="http://purl.org/dc/dcmitype/StillImage" />
      </cc:Work>
    </rdf:RDF>
  </metadata>
  <defs
     id="defs20" />
  <sodipodi:namedview
     pagecolor="#ffffff"
     bordercolor="#666666"
     borderopacity="1"
     objecttolerance="10"
     gridtolerance="10"
     guidetolerance="10"
     inkscape:pageopacity="0"
     inkscape:pageshadow="2"
     inkscape:window-width="1920"
     inkscape:window-height="1020"
     id="namedview18"
     showgrid="true"
     inkscape:zoom="10.148731"
     inkscape:cx="30.709851"
     inkscape:cy="38.628755"
     inkscape:window-x="-3"
     inkscape:window-y="-3"
     inkscape:window-maximized="1"
     inkscape:current-layer="svg2">
    <inkscape:grid
       type="xygrid"
       id="grid2999"
       empspacing="5"
       visible="true"
       enabled="true"
       snapvisiblegridlinesonly="true" />
  </sodipodi:namedview>
  <!-- Page: 1/1 -->
  <text
     font-size="2.1995"
     id="text4"
     style="font-size:2.19950008px;text-anchor:start;fill:currentColor;font-family:Century Schoolbook L"
     x="5.6905999"
     y="-162.9521">
    <tspan
       id="tspan6" />
  </text>
  <path
     d="m 2.0635885,2.1378549 c 0,-0.148 0.12,-0.268 0.268,-0.268 0.148,0 0.268,0.12 0.268,0.268 0,0.148 -0.12,0.268 -0.268,0.268 -0.148,0 -0.268,-0.12 -0.268,-0.268 z m 0.268,-1.26 c 0.628,0 1.328,0.704 1.328,1.464 0,0.036 -0.04,0.06 -0.076,0.06 -0.036,0 -0.068,-0.02 -0.076,-0.072 -0.104,-0.592 -0.584,-1.048 -1.176,-1.048 -0.592,0 -1.072,0.456 -1.176,1.048 -0.008,0.052 -0.04,0.072 -0.076,0.072 -0.036,0 -0.076,-0.024 -0.076,-0.06 0,-0.76 0.7,-1.464 1.328,-1.464 z"
     id="path8"
     inkscape:connector-curvature="0"
     style="fill:currentColor" />
  <a
     transform="translate(31.6841,-0.64620438)"
     xlink:href="http://lilypond.org/"
     id="a10">
    <rect
       x="0"
       y="-0.44389999"
       width="56.133499"
       height="2.0827"
       id="rect12"
       style="fill:none;stroke:none" />
  </a>
</svg>
